{
  "asset": {
    "generator": "glTF-Transform v4.1.2",
    "version": "2.0",
    "extras": {
      "author": "scailman (https://sketchfab.com/scailman)",
      "license": "CC-BY-4.0 (http://creativecommons.org/licenses/by/4.0/)",
      "source": "https://sketchfab.com/3d-models/low-poly-plane-76230052903540e9aeb46b7db35329e4",
      "title": "Low Poly Plane"
    }
  },
  "accessors": [
    {
      "type": "SCALAR",
      "componentType": 5123,
      "count": 5001,
      "bufferView": 0,
      "byteOffset": 0
    },
    {
      "type": "VEC3",
      "componentType": 5126,
      "count": 1746,
      "bufferView": 1,
      "byteOffset": 0
    },
    {
      "type": "VEC3",
      "componentType": 5126,
      "count": 1746,
      "max": [
        4.330904483795166,
        1.0672993659973145,
        1.4710934162139893
      ],
      "min": [
        -6.6869072914123535,
        -7.337376117706299,
        -1.1824822425842285
      ],
      "bufferView": 1,
      "byteOffset": 12
    },
    {
      "type": "VEC2",
      "componentType": 5126,
      "count": 1746,
      "bufferView": 1,
      "byteOffset": 24
    }
  ],
  "bufferViews": [
    {
      "buffer": 0,
      "byteOffset": 0,
      "byteLength": 10004,
      "target": 34963
    },
    {
      "buffer": 0,
      "byteOffset": 10004,
      "byteLength": 55872,
      "byteStride": 32,
      "target": 34962
    }
  ],
  "samplers": [
    {
      "magFilter": 9729,
      "minFilter": 9987,
      "wrapS": 10497,
      "wrapT": 10497
    }
  ],
  "textures": [
    {
      "source": 0,
      "sampler": 0
    }
  ],
  "images": [
    {
      "mimeType": "image/png",
      "uri": "textures/Plane_baseColor.png"
    }
  ],
  "buffers": [
    {
      "uri": "plane.bin",
      "byteLength": 65876
    }
  ],
  "materials": [
    {
      "name": "Plane",
      "doubleSided": true,
      "pbrMetallicRoughness": {
        "roughnessFactor": 0.6,
        "metallicFactor": 0,
        "baseColorTexture": {
          "index": 0
        }
      }
    }
  ],
  "meshes": [
    {
      "name": "Elevator_Plane_0",
      "primitives": [
        {
          "attributes": {
            "NORMAL": 1,
            "POSITION": 2,
            "TEXCOORD_0": 3
          },
          "mode": 4,
          "material": 0,
          "indices": 0
        }
      ]
    }
  ],
  "nodes": [
    {
      "name": "Elevator_Plane_0",
      "translation": [
        1.1373008489608765,
        -0.23605975208689883,
        -3.0396305636693537
      ],
      "rotation": [
        -0.7071067811865475,
        0,
        0,
        0.7071067811865476
      ],
      "mesh": 0
    }
  ],
  "scenes": [
    {
      "name": "Sketchfab_Scene",
      "nodes": [
        0
      ]
    }
  ],
  "scene": 0
}